<svg xmlns="http://www.w3.org/2000/svg" width="770.656" height="493.516" viewBox="0 0 770.656 493.516">
    <defs>
        <style>
            .cls-1{fill:#e6e6e6}.cls-2{fill:#3f3d56}.cls-3{fill:#6c63ff}.cls-4{fill:#ffb9b9}.cls-5{fill:#2f2e41}.cls-6{fill:#d0cde1}
        </style>
    </defs>
    <g id="undraw_instat_analysis_ajld">
        <path id="Path_1" d="M676.633 317.98c-.7 1.665-1.394 3.373-2.048 5.076l-1.712-.658a166.984 166.984 0 0 1 2.071-5.132z" class="cls-1" data-name="Path 1" transform="translate(-229.408 -176.401)"/>
        <path id="Path_2" d="M979.365 414.3c-.885 2.3-1.828 4.6-2.806 6.84l-1.681-.734a164.938 164.938 0 0 0 4.082-10.284l1.727.62q-.644 1.777-1.322 3.558zm4.739-14.214l-1.765-.5c1-3.541 1.9-7.153 2.652-10.739l1.795.379a167.49 167.49 0 0 1-2.681 10.861zm-12.363 31.149a163.706 163.706 0 0 1-5.5 9.743l-1.565-.957a161.575 161.575 0 0 0 5.435-9.633zm16.975-53.035l-1.817-.255a159.2 159.2 0 0 0 1.154-11l1.83.128a169.97 169.97 0 0 1-1.167 11.128zm-28.633 72.113a164.329 164.329 0 0 1-6.786 8.9l-1.419-1.161c2.328-2.844 4.585-5.8 6.71-8.8zm30.192-94.423h-1.834c0-3.671-.123-7.388-.371-11.044l1.83-.124c.251 3.7.379 7.456.379 11.169zM945.9 467.632a162.981 162.981 0 0 1-7.957 7.885l-1.246-1.347c2.7-2.493 5.343-5.116 7.867-7.8zm42.855-134.026l-1.817.25c-.5-3.638-1.135-7.3-1.883-10.894l1.8-.375c.753 3.632 1.4 7.339 1.9 11.019zm-59.29 149.227a164.437 164.437 0 0 1-8.958 6.717l-1.049-1.5c3.01-2.1 5.99-4.334 8.858-6.641zm54.735-171.11l-1.766.5a163.69 163.69 0 0 0-3.35-10.541l1.728-.616a167.64 167.64 0 0 1 3.388 10.661zm-73.086 183.914a165.58 165.58 0 0 1-9.786 5.431l-.834-1.633a163.402 163.402 0 0 0 9.676-5.371zM976.7 290.655l-1.682.731a163.578 163.578 0 0 0-4.754-9.992l1.629-.844c1.709 3.3 3.328 6.7 4.8 10.1zm-85.5 215.163a165.352 165.352 0 0 1-10.43 4.049l-.6-1.731a165.287 165.287 0 0 0 10.313-4zm75.212-235.024l-1.567.952a162.841 162.841 0 0 0-6.07-9.254l1.5-1.057a167.526 167.526 0 0 1 6.139 9.36zM870.087 513.2a164.33 164.33 0 0 1-10.879 2.591l-.364-1.8c3.6-.727 7.215-1.589 10.759-2.562zM953.5 252.516l-1.422 1.158a161.704 161.704 0 0 0-7.283-8.342l1.339-1.253a161.288 161.288 0 0 1 7.365 8.436zM848.179 517.629c-3.68.485-7.424.848-11.126 1.08l-.114-1.831c3.66-.229 7.362-.588 11-1.067zm90.028-281.463l-1.249 1.343a162.163 162.163 0 0 0-8.365-7.265l1.154-1.426a163.144 163.144 0 0 1 8.461 7.347zM825.883 519.021a162.87 162.87 0 0 1-11.18-.459l.139-1.829c3.661.277 7.379.43 11.053.454zm94.927-296.938l-1.053 1.5a161.261 161.261 0 0 0-9.271-6.034l.947-1.57a165.111 165.111 0 0 1 9.377 6.1zM803.583 517.332a163.04 163.04 0 0 1-11.009-1.993l.389-1.793c3.589.779 7.251 1.441 10.884 1.97zm98.077-306.794l-.837 1.632a163.306 163.306 0 0 0-10.009-4.71l.724-1.685a165.81 165.81 0 0 1 10.122 4.763zM781.728 512.594a164.92 164.92 0 0 1-10.634-3.476l.629-1.723a164.363 164.363 0 0 0 10.516 3.437zm98.777-309.156a163.597 163.597 0 0 0-10.552-3.32l.49-1.767c3.574.992 7.164 2.121 10.672 3.356zm-21.305-5.912c-3.6-.737-7.273-1.359-10.907-1.846l.244-1.818a163.41 163.41 0 0 1 11.032 1.867zm-21.915-2.936a160.893 160.893 0 0 0-11.045-.328l-.009-1.834a162.61 162.61 0 0 1 11.17.333zm-22.089.106c-3.664.271-7.362.673-10.991 1.193l-.261-1.816c3.671-.526 7.411-.932 11.116-1.206zm-21.877 3.137c-3.6.77-7.206 1.674-10.729 2.684l-.506-1.762a164.602 164.602 0 0 1 10.851-2.716zm-21.253 6.1a162.917 162.917 0 0 0-10.268 4.119l-.741-1.678c3.4-1.5 6.893-2.9 10.384-4.167zm-20.233 8.93a163.985 163.985 0 0 0-9.616 5.479l-.962-1.562a165.065 165.065 0 0 1 9.724-5.541zM733 224.46a163.742 163.742 0 0 0-8.781 6.741l-1.167-1.416a164.6 164.6 0 0 1 8.881-6.818zm-17.08 14.071a160.597 160.597 0 0 0-7.776 7.884l-1.35-1.242a163.375 163.375 0 0 1 7.864-7.975zm-14.99 16.287a160.79 160.79 0 0 0-6.609 8.872l-1.508-1.044a162.314 162.314 0 0 1 6.685-8.973zM688.335 273a161.246 161.246 0 0 0-5.328 9.7l-1.637-.829a162.91 162.91 0 0 1 5.388-9.8z" class="cls-1" data-name="Path 2" transform="translate(-231.127 -151.156)"/>
        <path id="Path_3" d="M779.993 581.324l-.745 1.676a164.137 164.137 0 0 1-5.017-2.335l.8-1.649c1.62.784 3.289 1.563 4.962 2.308z" class="cls-1" data-name="Path 3" transform="translate(-249.905 -229.332)"/>
        <path id="Rectangle_1" d="M0 0h438.779v279.888H0z" class="cls-2" data-name="Rectangle 1" transform="translate(38.293 212.763)"/>
        <path id="Path_4" d="M639.338 698.612c-.21-.344-5.173-8.631-6.894-25.838-1.578-15.787-.563-42.4 13.237-79.517 26.145-70.32-6.025-127.058-6.354-127.622l1.587-.921c.083.143 8.384 14.609 13.288 37.644a164.228 164.228 0 0 1-6.8 91.539c-26.1 70.2-6.7 103.431-6.5 103.759z" class="cls-1" data-name="Path 4" transform="translate(-221.12 -206.218)"/>
        <circle id="Ellipse_1" cx="11.923" cy="11.923" r="11.923" class="cls-3" data-name="Ellipse 1" transform="translate(396.072 231.441)"/>
        <circle id="Ellipse_2" cx="11.923" cy="11.923" r="11.923" class="cls-1" data-name="Ellipse 2" transform="translate(433.676 275.465)"/>
        <circle id="Ellipse_3" cx="11.923" cy="11.923" r="11.923" class="cls-3" data-name="Ellipse 3" transform="translate(407.995 304.815)"/>
        <circle id="Ellipse_4" cx="11.923" cy="11.923" r="11.923" class="cls-3" data-name="Ellipse 4" transform="translate(439.179 329.578)"/>
        <circle id="Ellipse_5" cx="11.923" cy="11.923" r="11.923" class="cls-1" data-name="Ellipse 5" transform="translate(398.823 368.099)"/>
        <path id="Path_5" d="M649.772 745.431s-11.923-29.349 23.846-51.361z" class="cls-1" data-name="Path 5" transform="translate(-224.351 -252.598)"/>
        <path id="Path_6" d="M619.854 749.938s-5.426-31.21-47.425-30.943z" class="cls-1" data-name="Path 6" transform="translate(-209.097 -257.638)"/>
        <path id="Path_7" d="M482.432 483.108a84.877 84.877 0 0 1 25.3 17.117l7.361-7.362a95.056 95.056 0 0 0-29.945-19.9z" class="cls-3" data-name="Path 7" transform="translate(-190.898 -207.885)"/>
        <path id="Path_8" d="M336.48 541.146a84.554 84.554 0 0 1 16.737-29.683l-7.374-7.374a94.79 94.79 0 0 0-19.41 34.364z" class="cls-3" data-name="Path 8" transform="translate(-159.351 -214.18)"/>
        <path id="Path_9" d="M532.764 510.679l-7.433 7.433a84.347 84.347 0 0 1 12.9 25.709l10.037-2.689a94.623 94.623 0 0 0-15.504-30.453z" class="cls-1" data-name="Path 9" transform="translate(-199.573 -215.513)"/>
        <path id="Path_10" d="M362.891 487.446l7.386 7.386a84.479 84.479 0 0 1 29.572-16.007l-2.689-10.037a94.73 94.73 0 0 0-34.269 18.657z" class="cls-3" data-name="Path 10" transform="translate(-166.724 -207.042)"/>
        <path id="Path_11" d="M331.371 578.946a84.893 84.893 0 0 1 .929-12.528l-10.079-2.7a95.6 95.6 0 0 0 1.758 38.916l10.032-2.688a84.435 84.435 0 0 1-2.64-21z" class="cls-3" data-name="Path 11" transform="translate(-158.253 -226.238)"/>
        <path id="Path_12" d="M458.193 685.545a84.434 84.434 0 0 1-20.84 2.6c-2.6 0-5.178-.125-7.722-.356l-2.721 10.153a95.487 95.487 0 0 0 33.97-2.366z" class="cls-1" data-name="Path 12" transform="translate(-179.67 -250.874)"/>
        <path id="Path_13" d="M340.3 625.238l-10.147 2.719a95.086 95.086 0 0 0 21.1 31.142l7.362-7.362a84.907 84.907 0 0 1-18.314-26.5z" class="cls-3" data-name="Path 13" transform="translate(-160.104 -238.679)"/>
        <path id="Path_14" d="M554.963 565.469l-10.1 2.706a84.782 84.782 0 0 1-.855 27.449l10.052 2.693a95.7 95.7 0 0 0 .9-32.848z" class="cls-1" data-name="Path 14" transform="translate(-203.35 -226.592)"/>
        <path id="Path_15" d="M425.161 474.933a84.794 84.794 0 0 1 32.291 1.885l2.688-10.032a95.66 95.66 0 0 0-37.685-1.95z" class="cls-3" data-name="Path 15" transform="translate(-178.769 -206.034)"/>
        <path id="Path_16" d="M404.62 682.205a84.236 84.236 0 0 1-27.58-12.805l-7.453 7.453a94.536 94.536 0 0 0 32.345 15.386z" class="cls-1" data-name="Path 16" transform="translate(-168.078 -247.609)"/>
        <path id="Path_17" d="M512.6 668.757l-7.369-7.369a84.8 84.8 0 0 1-22.994 14.86l2.718 10.142a95 95 0 0 0 27.645-17.633z" class="cls-1" data-name="Path 17" transform="translate(-190.859 -245.989)"/>
        <path id="Path_18" d="M536.026 619.631a84.565 84.565 0 0 1-13.305 23.434l7.4 7.4a94.8 94.8 0 0 0 15.979-28.134z" class="cls-1" data-name="Path 18" transform="translate(-199.045 -237.545)"/>
        <path id="Rectangle_2" d="M0 0h46.271v18.349H0z" class="cls-1" data-name="Rectangle 2" transform="translate(47.867 228.653)"/>
        <path id="Rectangle_3" d="M0 0h46.271v18.349H0z" class="cls-3" data-name="Rectangle 3" transform="translate(47.867 256.575)"/>
        <path id="Path_19" d="M527.969 195.675s5.211 17.123 2.233 22.334 5.211 16.378 18.612 11.167 14.145-11.167 14.145-11.167-5.211-8.189-6.7-25.312z" class="cls-4" data-name="Path 19" transform="translate(-200.106 -151.211)"/>
        <path id="Path_20" d="M438.036 406.669s-26.8 13.4-14.889 31.267c6.924 10.385 20.135 30.58 29.986 45.672a152.319 152.319 0 0 1 18.761 40.9l1.876 6.482 7.445 8.934 15.634-17.867s-23.078-42.434-23.078-50.623-18.611-34.245-18.611-34.245l18.612-11.911s-20.847-23.82-35.736-18.609z" class="cls-4" data-name="Path 20" transform="translate(-178.292 -194.329)"/>
        <path id="Path_21" d="M550.443 463.618s.744 20.845 1.489 29.034c.614 6.756-5.359 25.673-3.288 46.717a197.818 197.818 0 0 1-.451 40.909l-2.961 27.022 22.334 2.233 7.445-61.046s4.467-43.179 2.233-57.323l.744-29.778s-16.378-5.957-27.545 2.232z" class="cls-4" data-name="Path 21" transform="translate(-203.597 -205.122)"/>
        <path id="Path_22" d="M488.442 354.3s-52.112 33.5-52.857 43.923c0 0 29.778-2.978 30.523 23.078 0 0 17.867-6.7 22.334-8.189s28.289-17.123 28.289-17.123 9.678 7.445 9.678 19.356-.744 32.756 0 34.245 17.867-20.1 32.012-1.489l9.678-51.368s2.978-31.267-2.978-33.5L523.432 347.6z" class="cls-5" data-name="Path 22" transform="translate(-181.424 -182.535)"/>
        <circle id="Ellipse_6" cx="22.334" cy="22.334" r="22.334" class="cls-4" data-name="Ellipse 6" transform="translate(316.323 9.103)"/>
        <path id="Path_23" d="M524.74 227.575s25.191 6.653 28.6-5.979c0 0 30.955 5.979 36.166 26.079s-12.656 68.49-12.656 69.979 14.889 10.422 8.189 14.889-12.656-.744-9.678 5.211 8.189 7.445 3.722 8.934-31.267-21.589-52.112-15.634-31.267 1.489-31.267 1.489l-9.347-80.782a18.661 18.661 0 0 1 6.635-16.561c4.665-3.84 10.856-7.989 16.857-9.114 11.911-2.233 12.406-3.456 12.406-3.456z" class="cls-6" data-name="Path 23" transform="translate(-191.666 -157.055)"/>
        <path id="Path_24" d="M504.639 392.394s6.7 37.967 15.634 32.756-2.233-32.756-2.233-32.756z" class="cls-4" data-name="Path 24" transform="translate(-195.388 -191.593)"/>
        <path id="Path_25" d="M542.213 398.553s-11.609 36.765-1.278 36.273 13.165-30.079 13.165-30.079z" class="cls-4" data-name="Path 25" transform="translate(-201.862 -192.839)"/>
        <path id="Path_26" d="M484.666 557.659s-5.211-5.956-8.189 2.233S465.31 578.5 465.31 578.5s-17.867 20.1-5.211 20.845 30.523-17.867 30.523-17.867l20.845-19.356s-6.909-16.826-10.155-16.974-2.501 19.952-16.646 12.511z" class="cls-5" data-name="Path 26" transform="translate(-185.465 -222.484)"/>
        <path id="Path_27" d="M547.75 637.062s-5.247 1.531-4.857-4.818c0 0-18.966 10.029-13.755 17.474s11.167 14.889 11.167 14.889 27.545 15.634 29.778 11.911 2.233-11.167.745-14.145-8.934-8.189-6.7-12.656-.744-16.378-4.467-16.378-11.911 3.723-11.911 3.723z" class="cls-5" data-name="Path 27" transform="translate(-200.159 -240.096)"/>
        <path id="Path_28" d="M515.72 153.206s7.185-15.567 20.955-11.974 21.554 8.981 22.152 14.369a76.88 76.88 0 0 1-.3 13.471s-1.5-11.076-11.076-8.681-24.547.6-24.547.6l-2.395 21.554s-2.694-3.892-5.688-1.5-8.681-23.045.899-27.839z" class="cls-5" data-name="Path 28" transform="translate(-196.553 -140.694)"/>
        <path id="Path_29" d="M587.456 252.273s-17.867 48.39-16.378 54.346 0 6.7-2.233 8.189-8.189 17.123-8.189 17.123-3.722 8.934-6.7 11.167-2.978 8.189-2.978 8.189-7.445 7.445-5.956 8.934 1.489 3.722-1.489 5.956-5.956 5.211-4.467 5.956 11.911 8.934 14.889 8.189-1.489-3.722 2.233-5.211 5.956-3.722 4.467-4.467-5.956-.744-1.489-2.233 20.1-11.167 25.312-23.078 30.18-83.978 15.09-94.1c0-.003-6.157-7.893-12.112 1.04z" class="cls-6" data-name="Path 29" transform="translate(-202.27 -162.396)"/>
        <path id="Path_30" d="M492.729 243.088l-.3.126a18.746 18.746 0 0 0-11.137 13.48c-1.626 7.781-3.225 19.035-1.96 29.573 2.233 18.612 3.722 26.8 6.7 32.756s3.722 3.722 2.978 8.189-4.467.745-.744 6.7 5.956 4.467 4.467 7.445-3.722 2.978-.744 6.7 2.978 5.211 3.722 6.7 2.978 12.656 2.978 12.656 11.911-3.722 18.611-2.233c0 0-5.956-10.422-4.467-12.656s3.722-2.978 1.489-5.211-5.956-1.489-2.233-3.722-2.978-25.312-2.978-25.312z" class="cls-6" data-name="Path 30" transform="translate(-190.178 -161.401)"/>
        <path id="Rectangle_4" d="M0 0h770.656v1.596H0z" class="cls-2" data-name="Rectangle 4" transform="translate(0 491.92)"/>
        <path id="Path_31" d="M632.458 292.824l-1.161-1.095 87.536-92.894h71.253v1.6h-70.564z" class="cls-2" data-name="Path 31" transform="translate(-127.661 -40.208)"/>
        <path id="Rectangle_5" d="M0 0h84.093v2.851H0z" class="cls-3" data-name="Rectangle 5" transform="translate(613.965 170.826)"/>
        <path id="Rectangle_6" d="M0 0h84.093v2.851H0z" class="cls-3" data-name="Rectangle 6" transform="translate(613.965 182.941)"/>
        <path id="Rectangle_7" d="M0 0h84.093v2.851H0z" class="cls-3" data-name="Rectangle 7" transform="translate(613.965 195.056)"/>
        <path id="Rectangle_8" d="M0 0h84.093v2.851H0z" class="cls-3" data-name="Rectangle 8" transform="translate(605.189 402.98)"/>
        <path id="Rectangle_9" d="M0 0h84.093v2.851H0z" class="cls-3" data-name="Rectangle 9" transform="translate(605.189 415.095)"/>
        <path id="Rectangle_10" d="M0 0h84.093v2.851H0z" class="cls-3" data-name="Rectangle 10" transform="translate(605.189 427.211)"/>
        <path id="Path_32" d="M781.019 462.818h-84.186l-.238-.345-65.418-94.936 1.313-.9 65.18 94.59h83.348z" class="cls-2" data-name="Path 32" transform="translate(-127.636 -74.14)"/>
    </g>
</svg>
